<svg xmlns="http://www.w3.org/2000/svg" width="261.43" height="189.648" viewBox="0 0 261.43 189.648"><g transform="translate(1.395 1.97)"><line y2="222" transform="translate(184.973 164.758) rotate(124)" fill="none" stroke="#38ae1b" stroke-width="5"/><line y2="230" transform="translate(195.848 153) rotate(124)" fill="none" stroke="#38ae1b" stroke-width="5"/><line x1="170.787" y1="114.869" transform="translate(0 58.086)" fill="none" stroke="#38ae1b" stroke-width="5"/><line x1="160.056" y1="108.283" transform="translate(0.732 76.672)" fill="none" stroke="#38ae1b" stroke-width="5"/><path d="M0,0V156.5" transform="translate(132.036 183.332) rotate(124)" fill="none" stroke="#38ae1b" stroke-width="5"/><line y2="110" transform="translate(106.653 184.304) rotate(124)" fill="none" stroke="#38ae1b" stroke-width="5"/><line y2="245" transform="translate(209.21 143.92) rotate(124)" fill="none" stroke="#38ae1b" stroke-width="5"/><line x1="175.028" y2="136.749" transform="translate(81.759 30.955)" fill="none" stroke="#38ae1b" stroke-width="5"/><line x1="183.623" y2="142.959" transform="translate(68.164 15.955)" fill="none" stroke="#38ae1b" stroke-width="5"/><line y2="203" transform="translate(256.373 50.004) rotate(52)" fill="none" stroke="#38ae1b" stroke-width="5"/><line x1="153.728" y2="117.59" transform="translate(104.787 67.365)" fill="none" stroke="#38ae1b" stroke-width="5"/><path d="M0,0V158.521" transform="translate(256.324 88.113) rotate(52)" fill="none" stroke="#38ae1b" stroke-width="5"/><line x1="91.618" y2="72.401" transform="translate(157.787 112.554)" fill="none" stroke="#38ae1b" stroke-width="5"/><line y2="245" transform="translate(249.405) rotate(52)" fill="none" stroke="#38ae1b" stroke-width="5"/></g></svg>